<svg id="Capa_1" enable-background="new 0 0 458.354 458.354" height="512" viewBox="0 0 458.354 458.354" width="512" xmlns="http://www.w3.org/2000/svg"><path d="m128.912 343.764c-3.399 0-6.77-1.217-9.428-3.539l-114.588-100.265c-3.12-2.727-4.896-6.658-4.896-10.784s1.776-8.057 4.896-10.785l114.588-100.265c4.21-3.707 10.239-4.616 15.345-2.252 5.12 2.322 8.407 7.414 8.407 13.037v200.529c0 5.623-3.287 10.715-8.407 13.037-1.889.867-3.917 1.287-5.917 1.287zm-92.837-114.588 78.514 68.694v-137.389z"/><path id="path-1_24_" d="m229.177 286.47h229.177v28.647h-229.177z" transform="translate(8 10)"/><path d="m171.886.001h28.647v458.353h-28.647z"/><path id="path-1_23_" d="m229.177 143.235h229.177v28.647h-229.177z" transform="translate(8 5)"/><path id="path-1_22_" d="m229.178 0h229.177v28.647h-229.177z" transform="translate(8)"/><path id="path-1_21_" d="m229.178 429.707h229.177v28.647h-229.177z" transform="translate(8 15)"/></svg>