<svg id="Capa_1" enable-background="new 0 0 458.353 458.353" height="512" viewBox="0 0 458.353 458.353" width="512" xmlns="http://www.w3.org/2000/svg"><path d="m128.912 343.765c-3.399 0-6.77-1.217-9.428-3.539l-114.588-100.265c-3.12-2.727-4.896-6.658-4.896-10.784s1.776-8.057 4.896-10.785l114.588-100.265c4.21-3.707 10.225-4.616 15.345-2.252 5.12 2.322 8.407 7.414 8.407 13.037v200.529c0 5.623-3.287 10.715-8.407 13.037-1.889.867-3.917 1.287-5.917 1.287zm-92.837-114.588 78.514 68.694v-137.389z"/><path id="path-1_110_" d="m171.883 286.471h286.471v28.647h-286.471z" transform="translate(6 10)"/><path id="path-1_109_" d="m171.883 143.236h286.471v28.647h-286.471z" transform="translate(6 5)"/><path id="path-2_48_" d="m0 0h458.353v28.647h-458.353z"/><path id="path-2_47_" d="m0 429.706h458.353v28.647h-458.353z" transform="translate(0 15)"/></svg>