<svg id="Capa_1" enable-background="new 0 0 458.353 458.353" height="512" viewBox="0 0 458.353 458.353" width="512" xmlns="http://www.w3.org/2000/svg"><path d="m28.647 429.706h401.059v28.647h-401.059z"/><path d="m176.079 396.862c2.798 2.798 6.462 4.196 10.127 4.196s7.33-1.399 10.127-4.196l171.883-171.882c5.595-5.595 5.595-14.659 0-20.254l-204.574-204.726-20.254 20.406 51.211 51.211-161.755 161.756c-5.595 5.595-5.595 14.659 0 20.254zm38.774-304.991 108.657 108.657h-217.314c0 .001 108.657-108.657 108.657-108.657zm-137.304 137.305h245.962l-137.305 137.304-122.981-122.981s14.324-14.323 14.324-14.323z"/><path d="m386.735 372.412c23.695 0 42.971-19.275 42.971-42.971 0-18.31-21.807-51.853-31.179-65.435-5.371-7.749-18.212-7.749-23.583 0-9.372 13.582-31.179 47.125-31.179 65.435 0 23.696 19.275 42.971 42.97 42.971zm0-73.716c8.239 13.876 14.198 26.353 14.324 30.745 0 7.903-6.434 14.324-14.324 14.324-7.903 0-14.324-6.42-14.324-14.31.113-4.378 6.072-16.855 14.324-30.759z"/></svg>