<svg id="Capa_1" enable-background="new 0 0 458.353 458.353" height="512" viewBox="0 0 458.353 458.353" width="512" xmlns="http://www.w3.org/2000/svg"><path d="m444.029 28.647h-257.823c-7.917 0-14.324 6.406-14.324 14.324v200.529c0 7.917 6.406 14.324 14.324 14.324h257.824c7.917 0 14.324-6.406 14.324-14.324v-200.529c-.001-7.918-6.407-14.324-14.325-14.324zm-243.5 28.647h229.176v171.882l-85.941-85.941-85.941 85.941h-57.294z"/><path d="m278.08 94.332c11.187 11.187 11.187 29.326 0 40.513s-29.326 11.187-40.513 0-11.187-29.326 0-40.513c11.188-11.188 29.326-11.188 40.513 0"/><path d="m0 401.059h343.765v28.647h-343.765z"/><path id="path-1_34_" d="m0 200.529h143.235v28.647h-143.235z" transform="translate(0 7)"/><path d="m0 315.118h458.353v28.647h-458.353z"/><path id="path-1_33_" d="m0 85.941h143.235v28.647h-143.235z" transform="translate(0 3)"/></svg>