<svg id="Capa_1" enable-background="new 0 0 458.354 458.354" height="512" viewBox="0 0 458.354 458.354" width="512" xmlns="http://www.w3.org/2000/svg"><path d="m14.324 343.764c-2 0-4.028-.42-5.917-1.287-5.12-2.322-8.407-7.413-8.407-13.037v-200.529c0-5.623 3.287-10.715 8.407-13.037 5.134-2.336 11.12-1.441 15.345 2.252l114.588 100.265c3.119 2.728 4.896 6.658 4.896 10.785s-1.776 8.057-4.896 10.785l-114.589 100.264c-2.657 2.322-6.028 3.539-9.427 3.539zm14.323-183.283v137.389l78.514-68.694s-78.514-68.695-78.514-68.695z"/><path id="path-1_100_" d="m229.177 286.47h229.177v28.647h-229.177z" transform="translate(8 10)"/><path d="m171.886.001h28.647v458.353h-28.647z"/><path id="path-1_99_" d="m229.177 143.235h229.177v28.647h-229.177z" transform="translate(8 5)"/><path id="path-1_98_" d="m229.178 0h229.177v28.647h-229.177z" transform="translate(8)"/><path id="path-1_97_" d="m229.178 429.707h229.177v28.647h-229.177z" transform="translate(8 15)"/></svg>