<svg id="Capa_1" enable-background="new 0 0 458.353 458.353" height="512" viewBox="0 0 458.353 458.353" width="512" xmlns="http://www.w3.org/2000/svg"><path d="m14.324 257.824h257.824c7.917 0 14.324-6.406 14.324-14.324v-200.529c0-7.917-6.406-14.324-14.324-14.324h-257.824c-7.918 0-14.324 6.406-14.324 14.324v200.529c0 7.917 6.406 14.324 14.324 14.324zm14.323-200.53h229.176v171.882l-85.941-85.941-85.941 85.941h-57.294z"/><path d="m106.198 94.332c11.187 11.187 11.187 29.326 0 40.513s-29.326 11.187-40.513 0-11.187-29.326 0-40.513c11.187-11.188 29.326-11.188 40.513 0"/><path d="m315.118 171.882h143.235v28.647h-143.235z"/><path d="m0 286.471h458.353v28.647h-458.353z"/><path d="m0 401.059h343.765v28.647h-343.765z"/></svg>