<svg id="Capa_1" enable-background="new 0 0 401.059 401.059" height="512" viewBox="0 0 401.059 401.059" width="512" xmlns="http://www.w3.org/2000/svg"><path d="m372.412 372.412h-14.324v28.647h42.971v-42.971h-28.647z"/><path id="path-1_42_" d="m263.544 372.412h63.029v28.647h-63.029z" transform="translate(10.2 14)"/><path id="path-2_22_" d="m74.485 372.412h63.015v28.647h-63.015z" transform="translate(3.6 14)"/><path d="m28.647 358.088h-28.647v42.971h42.971v-28.647h-14.324z"/><path id="path-3_7_" d="m0 74.485h28.647v63.015h-28.647z" transform="translate(1 3.6)"/><path id="path-4_7_" d="m0 263.544h28.647v63.029h-28.647z" transform="translate(1 10.2)"/><path d="m28.647 28.647h14.324v-28.647h-42.971v42.971h28.647z"/><path id="path-2_21_" d="m263.559 0h63.015v28.647h-63.015z" transform="translate(10.2 1)"/><path id="path-1_41_" d="m74.485 0h63.029v28.647h-63.029z" transform="translate(3.6 1)"/><path d="m358.088 0v28.647h14.324v14.324h28.647v-42.971z"/><path id="path-4_6_" d="m372.412 74.485h28.647v63.029h-28.647z" transform="translate(14 3.6)"/><path id="path-3_6_" d="m372.412 263.559h28.647v63.015h-28.647z" transform="translate(14 10.2)"/><path d="m372.412 186.206h-157.559v-157.559h17.191v-28.647h-63.029v28.647h17.191v157.559h-157.559v-17.191h-28.647v63.029h28.647v-17.191h157.559v157.559h-17.191v28.647h63.029v-28.647h-17.191v-157.559h157.559v17.191h28.647v-63.029h-28.647z"/></svg>