<svg id="Capa_1" enable-background="new 0 0 458.353 458.353" height="512" viewBox="0 0 458.353 458.353" width="512" xmlns="http://www.w3.org/2000/svg"><path d="m229.176 28.647c47.391 0 85.941 38.55 85.941 85.941v28.647c-15.822 0-28.647 12.825-28.647 28.647 0 15.82 12.825 28.647 28.647 28.647s28.647-12.827 28.647-28.647v-57.294c.001-63.183-51.404-114.588-114.588-114.588s-114.588 51.405-114.588 114.588v114.588h-57.294v28.647h57.294v171.882h-57.294v28.647h143.235v-28.647h-57.294v-171.881h57.294v-28.647h-57.294v-114.589c0-47.391 38.551-85.941 85.941-85.941z"/><path d="m343.765 429.706v-200.53h-28.647v200.529h-57.294v28.647h143.235v-28.647h-57.294z"/></svg>