<svg id="Capa_1" enable-background="new 0 0 458.353 458.353" height="512" viewBox="0 0 458.353 458.353" width="512" xmlns="http://www.w3.org/2000/svg"><path d="m280.741 0-122.887 175.552-122.886-175.552h-34.968l140.371 200.529-140.371 200.53h34.968l122.886-175.552 122.886 175.552h34.968l-140.371-200.53 140.372-200.529z"/><path d="m433.902 374.146c15.54-15.54 24.451-37.054 24.451-59.029 0-31.599-25.696-57.294-57.294-57.294-31.599 0-57.294 25.696-57.294 57.294v14.324h28.647v-14.324c0-15.792 12.855-28.647 28.647-28.647s28.647 12.855 28.647 28.647c0 14.435-5.847 28.563-16.058 38.774l-69.883 69.883v34.578l114.588-.028v-28.619h-79.996c-.001.001 55.545-55.559 55.545-55.559z"/></svg>