<svg id="Capa_1" enable-background="new 0 0 401.059 401.059" height="512" viewBox="0 0 401.059 401.059" width="512" xmlns="http://www.w3.org/2000/svg"><path d="m386.735 0h-372.411c-7.918 0-14.324 6.406-14.324 14.324v372.412c0 7.917 6.406 14.324 14.324 14.324h372.412c7.917 0 14.324-6.406 14.324-14.324v-372.412c-.001-7.918-6.408-14.324-14.325-14.324zm-14.323 186.206h-28.647v28.647h28.647v157.559h-157.559v-28.647h-28.647v28.647h-157.559v-157.559h28.647v-28.647h-28.647v-157.559h157.559v28.647h28.647v-28.647h157.559z"/><path id="path-1_55_" d="m257.824 186.206h57.294v28.647h-57.294z" transform="translate(10 7.5)"/><path id="path-1_54_" d="m85.941 186.206h57.294v28.647h-57.294z" transform="translate(4 7.5)"/><path id="path-2_28_" d="m186.206 85.941h28.647v57.294h-28.647z" transform="translate(7.5 4)"/><path id="path-2_27_" d="m186.206 257.824h28.647v57.294h-28.647z" transform="translate(7.5 10)"/><path d="m214.853 171.882h-28.647v14.324h-14.324v28.647h14.324v14.324h28.647v-14.324h14.324v-28.647h-14.324z"/></svg>