<svg id="Capa_1" enable-background="new 0 0 401.059 401.059" height="512" viewBox="0 0 401.059 401.059" width="512" xmlns="http://www.w3.org/2000/svg"><path d="m257.824 171.882h28.647v-157.558c0-7.918-6.407-14.324-14.324-14.324h-42.971v28.647h28.647v143.235z"/><path d="m143.235 28.647h-28.647v286.471h-28.647l42.971 57.294 42.971-57.294h-28.647v-286.471z"/><path d="m257.824 200.529c-31.599 0-57.294 25.696-57.294 57.294 0 31.599 25.696 57.294 57.294 57.294 9.115 0 17.619-2.336 25.278-6.137-9.965 36.433-43.02 63.431-82.572 63.431v28.647c63.183 0 114.588-51.405 114.588-114.588v-28.647c0-31.598-25.696-57.294-57.294-57.294zm0 85.942c-15.792 0-28.647-12.855-28.647-28.647s12.855-28.647 28.647-28.647 28.647 12.855 28.647 28.647-12.855 28.647-28.647 28.647z"/></svg>