<svg id="Capa_1" enable-background="new 0 0 458.353 458.353" height="512" viewBox="0 0 458.353 458.353" width="512" xmlns="http://www.w3.org/2000/svg"><path d="m311.353 272.147c19.987 16.411 32.412 41.044 32.412 68.554 0 49.083-39.921 89.004-89.004 89.004h-168.82v28.647h168.819c64.876 0 117.651-52.776 117.651-117.651 0-25.554-8.302-49.137-22.235-68.554z"/><path d="m147 186.206c-19.987-16.411-32.412-41.044-32.412-68.554 0-49.083 39.921-89.004 89.004-89.004h168.819v-28.648h-168.818c-64.876 0-117.652 52.776-117.652 117.651 0 25.554 8.302 49.137 22.235 68.554.001.001 38.824.001 38.824.001z"/><path d="m57.294 214.853h343.765v28.647h-343.765z"/></svg>