<svg id="Capa_1" enable-background="new 0 0 458.353 458.353" height="512" viewBox="0 0 458.353 458.353" width="512" xmlns="http://www.w3.org/2000/svg"><path d="m386.735 458.353h-315.117c-5.399 0-10.337-3.035-12.771-7.847-2.448-4.812-1.972-10.589 1.217-14.953l151.348-206.376-151.348-206.377c-3.189-4.364-3.665-10.141-1.217-14.953 2.434-4.812 7.371-7.847 12.771-7.847h315.118c7.917 0 14.324 6.406 14.324 14.324v71.618h-28.647v-57.295h-272.526l140.844 192.053c3.693 5.05 3.693 11.904 0 16.953l-140.844 192.053h272.525v-57.294h28.647v71.618c0 7.916-6.406 14.323-14.324 14.323z"/></svg>