<svg id="Capa_1" enable-background="new 0 0 401.059 401.059" height="512" viewBox="0 0 401.059 401.059" width="512" xmlns="http://www.w3.org/2000/svg"><path d="m0 0v42.971h28.647v-14.324h157.559v28.647h28.647v-28.647h157.559v14.324h28.647v-42.971z"/><path id="path-1_67_" d="m372.412 263.559h28.647v63.015h-28.647z" transform="translate(14 10.2)"/><path id="path-2_32_" d="m372.412 74.485h28.647v63.029h-28.647z" transform="translate(14 3.6)"/><path d="m372.412 186.206h-28.647v28.647h28.647v17.191h28.647v-63.029h-28.647z"/><path d="m372.412 372.412h-14.324v28.647h42.971v-42.971h-28.647z"/><path d="m74.485 372.412h63.015v28.647h-63.015z"/><path d="m263.544 372.412h63.029v28.647h-63.029z"/><path d="m28.647 358.088h-28.647v42.971h42.971v-28.647h-14.324z"/><path id="path-1_66_" d="m0 74.485h28.647v63.015h-28.647z" transform="translate(1 3.6)"/><path id="path-2_31_" d="m0 263.544h28.647v63.029h-28.647z" transform="translate(1 10.2)"/><path d="m28.647 169.015h-28.647v63.029h28.647v-17.191h28.647v-28.647h-28.647z"/><path id="path-3_15_" d="m85.941 186.206h57.294v28.647h-57.294z" transform="translate(4 7.5)"/><path id="path-3_14_" d="m257.824 186.206h57.294v28.647h-57.294z" transform="translate(10 7.5)"/><path d="m214.853 343.765h-28.647v28.647h-17.191v28.647h63.029v-28.647h-17.191z"/><path id="path-4_15_" d="m186.206 257.824h28.647v57.294h-28.647z" transform="translate(7.5 10)"/><path d="m186.206 186.206h-14.324v28.647h14.324v14.324h28.647v-14.324h14.324v-28.647h-14.324v-14.324h-28.647z"/><path id="path-4_14_" d="m186.206 85.941h28.647v57.294h-28.647z" transform="translate(7.5 4)"/></svg>